<!-- icon666.com - MILLIONS vector ICONS FREE --><svg id="Design" enable-background="new 0 0 192 192" viewBox="0 0 192 192" xmlns="http://www.w3.org/2000/svg" xmlns:xlink="http://www.w3.org/1999/xlink"><linearGradient id="SVGID_1_" gradientTransform="matrix(1 0 0 -1 0 194)" gradientUnits="userSpaceOnUse" x1="33.775" x2="158.225" y1="160.225" y2="35.775"><stop offset="0" stop-color="#ffcf57"></stop><stop offset="1" stop-color="#f57f17"></stop></linearGradient><circle cx="96" cy="96" fill="url(#SVGID_1_)" r="88"></circle><g><g><path d="m81.26 75.18c-1.1 0-2-.9-2-2 0-7.14-5.8-12.94-12.94-12.94s-12.94 5.8-12.94 12.94c0 1.1-.9 2-2 2s-2-.9-2-2c0-9.34 7.6-16.94 16.94-16.94s16.94 7.6 16.94 16.94c0 1.1-.9 2-2 2z"></path></g><g><path d="m140.6 75.18c-1.1 0-2-.9-2-2 0-7.14-5.8-12.94-12.94-12.94s-12.94 5.8-12.94 12.94c0 1.1-.9 2-2 2s-2-.9-2-2c0-9.34 7.6-16.94 16.94-16.94s16.94 7.6 16.94 16.94c0 1.1-.9 2-2 2z"></path></g><path d="m122.4 127.03c-15.03 13.05-37.58 13.03-52.61-.23 6.17-7.65 15.62-12.55 26.21-12.55 10.7 0 20.23 4.99 26.4 12.78z" fill="#ff5a5a"></path><path d="m134.67 114.45-9.53 9.97c-.88.92-1.79 1.79-2.74 2.61-6.17-7.79-15.7-12.78-26.4-12.78-10.59 0-20.04 4.9-26.21 12.55-.63-.55-1.25-1.13-1.85-1.73l-10.53-10.53c-3.15-3.15-.92-8.54 3.54-8.54h70.1c4.4 0 6.66 5.27 3.62 8.45z"></path></g></svg>