<!-- icon666.com - MILLIONS vector ICONS FREE --><svg id="Design" enable-background="new 0 0 192 192" viewBox="0 0 192 192" xmlns="http://www.w3.org/2000/svg" xmlns:xlink="http://www.w3.org/1999/xlink"><linearGradient id="SVGID_1_" gradientTransform="matrix(1 0 0 -1 0 194)" gradientUnits="userSpaceOnUse" x1="33.775" x2="158.225" y1="160.225" y2="35.775"><stop offset="0" stop-color="#ffcf57"></stop><stop offset="1" stop-color="#f57f17"></stop></linearGradient><circle cx="96" cy="96" fill="url(#SVGID_1_)" r="88"></circle><g><g><circle cx="132.28" cy="67.5" r="12"></circle></g><g><circle cx="60.45" cy="67.5" r="12"></circle></g><g><path d="m97.42 127.67c-18.67 0-36.52-4.22-53.06-12.54-.99-.5-1.38-1.7-.89-2.69.5-.99 1.7-1.38 2.69-.89 15.98 8.04 33.22 12.12 51.26 12.12 16.95 0 33.26-3.62 48.48-10.77 1-.47 2.19-.04 2.66.96s.04 2.19-.96 2.66c-15.75 7.4-32.64 11.15-50.18 11.15z"></path></g></g></svg>